<svg width="596" height="128" viewBox="0 0 596 128" fill="none" xmlns="http://www.w3.org/2000/svg">
<path d="M73.501 106.735L63.9902 128L54.4795 106.735L63.9902 97.2158L73.501 106.735ZM111.646 21.3252C122.137 33.0543 127.938 48.2384 127.938 63.9746C127.937 79.7108 122.137 94.8949 111.646 106.624C105.652 99.9063 98.3033 94.5327 90.084 90.8574C81.8645 87.1821 72.9598 85.2876 63.9561 85.2988C54.9565 85.2912 46.0567 87.1881 37.8418 90.8633C29.6272 94.5385 22.2829 99.9096 16.291 106.624C5.8002 94.8949 3.25589e-05 79.7108 0 63.9746C0 48.2383 5.80017 33.0543 16.291 21.3252C22.2844 28.038 29.6294 33.408 37.8438 37.083C46.0582 40.758 54.957 42.6549 63.9561 42.6494C72.9595 42.6585 81.8629 40.7631 90.082 37.0879C98.3011 33.4127 105.65 28.0412 111.646 21.3252ZM73.501 21.2646L63.9902 30.7764L54.4795 21.2646L63.9902 0L73.501 21.2646Z" fill="#AB916C" style="fill:#AB916C;fill:color(display-p3 0.6706 0.5686 0.4235);fill-opacity:1;"/>
<path d="M176.279 19.3999H199.703L232.471 109H212.759C211.052 104.563 209.218 100.765 207.255 97.608C205.292 94.4507 202.732 91.848 199.575 89.8C196.503 87.752 192.706 86.728 188.183 86.728C183.66 86.728 179.82 87.7947 176.663 89.928C173.506 91.976 170.903 94.5787 168.855 97.736C166.892 100.893 165.058 104.648 163.351 109H143.639L176.279 19.3999ZM170.263 89.928C171.97 86.4293 174.231 83.2293 177.047 80.328C179.948 77.3413 183.66 75.848 188.183 75.848C195.436 75.848 201.41 80.5413 206.103 89.928L193.943 55.112C192.407 50.8453 191.17 46.5786 190.231 42.3119C189.292 37.9599 188.61 34.4186 188.183 31.6879C187.756 34.4186 187.031 37.9599 186.007 42.3119C185.068 46.5786 183.874 50.8453 182.423 55.112L170.263 89.928ZM264.862 62.92L236.062 19.3999H257.054L270.238 40.7759C272.457 44.7013 274.163 47.9013 275.358 50.376C276.467 47.9866 278.217 44.7866 280.606 40.7759L293.662 19.3999H314.782L285.982 62.92L316.19 109H294.942L280.99 86.088C278.857 82.76 276.979 79.5173 275.358 76.36C273.651 79.5173 271.817 82.76 269.854 86.088L255.774 109H234.654L264.862 62.92ZM321.982 19.3999H391.23V35.3999H339.646V88.136C341.267 80.456 344.083 73.8 348.094 68.168C352.105 62.536 357.438 58.312 364.094 55.496C370.835 52.5946 378.686 51.5706 387.646 52.424V69.448C380.905 68.5093 374.462 68.8933 368.318 70.6C362.259 72.2213 356.969 74.9946 352.446 78.92C348.009 82.76 344.766 87.4533 342.718 93H391.23V109H321.982V19.3999ZM440.261 111.048C431.13 111.048 423.066 109 416.069 104.904C409.157 100.808 403.781 95.2187 399.941 88.136C396.186 80.968 394.309 72.9893 394.309 64.2C394.309 55.4106 396.186 47.4746 399.941 40.3919C403.781 33.2239 409.157 27.5919 416.069 23.4959C423.066 19.3999 431.13 17.3519 440.261 17.3519C449.306 17.3519 457.285 19.3999 464.197 23.4959C471.109 27.5919 476.485 33.2239 480.325 40.3919C484.165 47.4746 486.085 55.4106 486.085 64.2C486.085 72.9893 484.165 80.968 480.325 88.136C476.485 95.2187 471.109 100.808 464.197 104.904C457.285 109 449.306 111.048 440.261 111.048ZM440.133 95.048C445.509 95.048 450.202 93.7253 454.213 91.08C458.309 88.3493 461.466 84.6373 463.685 79.944C465.904 75.2506 467.013 70.0026 467.013 64.2C467.013 58.3973 465.904 53.1493 463.685 48.456C461.466 43.7626 458.309 40.0933 454.213 37.4479C450.202 34.7173 445.509 33.3519 440.133 33.3519C434.842 33.3519 430.149 34.7173 426.053 37.4479C422.042 40.0933 418.928 43.7626 416.709 48.456C414.49 53.1493 413.381 58.3973 413.381 64.2C413.381 70.0026 414.49 75.2506 416.709 79.944C418.928 84.552 422.042 88.2213 426.053 90.952C430.149 93.6827 434.842 95.048 440.133 95.048ZM493.982 19.3999H518.43L535.966 66.76C537.502 71.1973 538.782 75.2933 539.806 79.048C540.915 82.8026 541.683 86.0453 542.11 88.776C542.622 86.0453 543.39 82.8026 544.414 79.048C545.523 75.208 546.846 71.112 548.382 66.76L565.79 19.3999H590.366V109H574.494V67.656C574.494 54.7706 575.006 44.3173 576.03 36.2959L558.11 86.088C554.441 96.328 552.179 103.965 551.326 109H533.022C531.998 103.283 529.737 95.6453 526.238 86.088L508.318 36.2959C509.342 44.3173 509.854 54.7706 509.854 67.656V109H493.982V19.3999Z" fill="white" style="fill:white;fill-opacity:1;"/>
</svg>
